<?xml version="1.0" encoding="iso-8859-1"?>
<!-- Generator: Adobe Illustrator 19.0.0, SVG Export Plug-In . SVG Version: 6.00 Build 0)  -->
<svg version="1.1" fill="#667580" id="Layer_1" xmlns="http://www.w3.org/2000/svg" xmlns:xlink="http://www.w3.org/1999/xlink" x="0px" y="0px"
	 viewBox="0 0 512 512" style="enable-background:new 0 0 512 512;" xml:space="preserve">
<g>
	<g>
		<g>
			<path d="M193.125,314.104c1.875,3.74,5.635,5.896,9.552,5.896c1.604,0,3.229-0.365,4.76-1.125
				c5.271-2.635,7.406-9.042,4.771-14.313c-0.552-1.115-13.938-27.229-41.542-27.229c-27.604,0-40.99,26.115-41.542,27.229
				c-2.625,5.25-0.5,11.594,4.729,14.25c5.188,2.646,11.635,0.573,14.323-4.646c0.083-0.156,8.177-15.5,22.49-15.5
				S193.073,314.01,193.125,314.104z"/>
			<path d="M341.333,277.333c-27.604,0-40.99,26.115-41.542,27.229c-2.625,5.25-0.5,11.594,4.729,14.25
				c5.198,2.646,11.625,0.573,14.323-4.646c0.083-0.156,8.177-15.5,22.49-15.5c14.313,0,22.406,15.344,22.458,15.438
				c1.875,3.74,5.635,5.896,9.552,5.896c1.604,0,3.229-0.365,4.76-1.125c5.271-2.635,7.406-9.042,4.771-14.313
				C382.323,303.448,368.938,277.333,341.333,277.333z"/>
			<path d="M337.635,386.74c-4.354-3.844-11.073-3.385-14.979,0.885c-0.167,0.177-16.813,17.708-66.656,17.708
				c-49.146,0-66.021-17.042-66.635-17.688c-3.823-4.354-10.458-4.885-14.906-1.135c-4.51,3.802-5.073,10.531-1.281,15.031
				c2.177,2.573,22.927,25.125,82.823,25.125s80.646-22.552,82.823-25.125C342.563,397.104,342,390.573,337.635,386.74z"/>
			<path d="M475.344,256.417c-17.389-82.859-83.143-146.035-166.648-165.039c-0.241-0.035-0.464-0.13-0.706-0.148
				c-16.724-3.753-34.091-5.896-51.99-5.896c-11.018,0-21.801,0.931-32.409,2.382c-14.173-16.582-13.599-41.533,2.086-57.21
				c11.958-11.974,32.792-11.974,44.75,0c9.042,9.047,9.042,23.77,0,32.818c-4.167,4.164-4.167,10.911,0,15.076
				c4.167,4.164,10.917,4.164,15.083,0c17.375-17.357,17.375-45.613,0-62.97C274.849,4.761,259.948-0.644,245.328,0.061
				c-12.806,0.618-25.396,6.023-34.734,15.367c-20.728,20.727-23.876,52.219-9.944,76.508
				C118.4,111.66,53.862,174.43,36.656,256.417C15.969,259.354,0,277.177,0,298.667c0,21.49,15.969,39.313,36.656,42.25
				C57.573,440.583,148.375,512,256,512s198.427-71.417,219.344-171.083c20.688-2.938,36.656-20.76,36.656-42.25
				C512,277.177,496.031,259.354,475.344,256.417z M469.531,320.01l-2.135-0.26c-5.594-0.625-10.542,3.385-11.448,8.875
				C440.375,422.521,356.281,490.667,256,490.667S71.625,422.521,56.052,328.625c-0.854-5.167-7.031-8.667-12.375-8.667
				c-0.344,0-0.677,0.01-1.01,0.042c-11.76,0-21.333-9.573-21.333-21.333c0-11.76,9.573-21.333,21.135-21.344l2.135,0.26
				c5.354,0.448,10.542-3.385,11.448-8.875c13.484-81.301,78.374-143.207,160.628-158.375C230.753,121.832,247.702,128,264.885,128
				c15.525,0,30.995-5.035,44.4-14.656c75.561,19.27,133.951,78.717,146.663,155.365c0.906,5.49,5.833,9.292,11.448,8.875
				l1.938-0.25c11.76,0,21.333,9.573,21.333,21.333C490.667,310.427,481.094,320,469.531,320.01z"/>
		</g>
	</g>
</g>
<g>
</g>
<g>
</g>
<g>
</g>
<g>
</g>
<g>
</g>
<g>
</g>
<g>
</g>
<g>
</g>
<g>
</g>
<g>
</g>
<g>
</g>
<g>
</g>
<g>
</g>
<g>
</g>
<g>
</g>
</svg>
