<?xml version="1.0" encoding="iso-8859-1"?>
<!-- Generator: Adobe Illustrator 19.0.0, SVG Export Plug-In . SVG Version: 6.00 Build 0)  -->
<svg version="1.1" fill="#667580" id="Capa_1" xmlns="http://www.w3.org/2000/svg" xmlns:xlink="http://www.w3.org/1999/xlink" x="0px" y="0px"
	 viewBox="0 0 489.188 489.188" style="enable-background:new 0 0 489.188 489.188;" xml:space="preserve">
<g>
	<g>
		<path d="M482.691,219.782l-224.7-214.3c-7.3-7.3-19.8-7.3-28.1,0l-223.6,215.3c-12.2,12.2-6.1,34.3,13.5,34.3h70.7v192.5
			c0,22.9,18.7,41.6,41.6,41.6h224.7c22.9,0,41.6-18.7,41.6-42.7v-192.4h70.7C487.791,254.082,495.891,232.982,482.691,219.782z
			 M378.691,214.582c-11.4,0-20.8,9.4-20.8,20.8v213.2c0,1,0,1-1,1h-223.7c-1,0-1,0-1-1v-213.2c0-11.4-9.4-20.8-20.8-20.8h-40.6
			l173.7-166.5l174.8,166.5H378.691z"/>
		<path d="M170.591,291.482c0,40.6,33.3,73.9,73.9,73.9s73.9-32.3,73.9-73.9c0-40.6-33.3-73.9-73.9-73.9
			S170.591,250.982,170.591,291.482z M277.791,292.582c0,18.7-14.6,33.3-33.3,33.3s-33.3-14.6-33.3-33.3c0-18.7,14.6-33.3,33.3-33.3
			S277.791,273.882,277.791,292.582z"/>
	</g>
</g>
<g>
</g>
<g>
</g>
<g>
</g>
<g>
</g>
<g>
</g>
<g>
</g>
<g>
</g>
<g>
</g>
<g>
</g>
<g>
</g>
<g>
</g>
<g>
</g>
<g>
</g>
<g>
</g>
<g>
</g>
</svg>
