<?xml version="1.0" encoding="iso-8859-1"?>
<!-- Generator: Adobe Illustrator 19.0.0, SVG Export Plug-In . SVG Version: 6.00 Build 0)  -->
<svg version="1.1" fill="#667580" id="Layer_1" xmlns="http://www.w3.org/2000/svg" xmlns:xlink="http://www.w3.org/1999/xlink" x="0px" y="0px"
	 viewBox="0 0 495.996 495.996" style="enable-background:new 0 0 495.996 495.996;" xml:space="preserve">
<g>
	<g>
		<path d="M465.474,254.268L357.038,145.82c-19.644-19.644-45.856-30.46-73.8-30.46c-14.196,0-27.94,2.8-40.612,8.124l28.428,28.428
			c3.984-0.692,8.052-1.104,12.184-1.104c18.48,0,35.788,7.136,48.74,20.076l108.436,108.444c26.876,26.88,26.876,70.6-0.016,97.48
			l-0.852,0.86c-12.948,12.956-30.256,20.08-48.74,20.08c-18.484,0-35.788-7.12-48.74-20.08l-108.44-108.444
			c-26.872-26.864-26.872-70.584,0.016-97.476l0.852-0.864c3.768-3.764,7.94-6.984,12.372-9.724l-25.552-25.552
			c-4.18,3.076-8.16,6.492-11.896,10.228l-0.852,0.864c-40.696,40.692-40.696,106.912,0,147.6l108.436,108.428
			c19.64,19.644,45.856,30.46,73.8,30.46c27.944,0,54.156-10.816,73.816-30.476l0.852-0.848
			C506.17,361.176,506.17,294.96,465.474,254.268z"/>
	</g>
</g>
<g>
	<g>
		<path d="M287.43,201.716L178.99,93.268c-19.644-19.632-45.852-30.46-73.8-30.46c-27.944,0-54.156,10.828-73.816,30.476
			l-0.852,0.86c-40.696,40.692-40.696,106.912,0,147.6l108.436,108.448c19.644,19.644,45.856,30.46,73.8,30.46
			c14.196,0,27.94-2.816,40.612-8.136L224.938,344.1c-3.98,0.692-8.044,1.104-12.18,1.104c-18.48,0-35.788-7.136-48.74-20.088
			L55.578,216.684c-26.868-26.876-26.868-70.6,0.02-97.492l0.852-0.848c12.952-12.952,30.256-20.088,48.74-20.088
			s35.788,7.136,48.74,20.088l108.44,108.432c26.872,26.876,26.872,70.596-0.016,97.492l-0.856,0.848
			c-3.768,3.764-7.94,6.984-12.372,9.736l25.552,25.556c4.184-3.08,8.16-6.492,11.9-10.232l0.852-0.86
			C328.126,308.624,328.126,242.404,287.43,201.716z"/>
	</g>
</g>
<g>
</g>
<g>
</g>
<g>
</g>
<g>
</g>
<g>
</g>
<g>
</g>
<g>
</g>
<g>
</g>
<g>
</g>
<g>
</g>
<g>
</g>
<g>
</g>
<g>
</g>
<g>
</g>
<g>
</g>
</svg>
